<svg width="900" height="320" viewBox="0 0 900 320" xmlns="http://www.w3.org/2000/svg" role="img" aria-label="Scope 2 emissions illustration">
  <defs>
    <linearGradient id="g2" x1="0" y1="0" x2="1" y2="1">
      <stop offset="0%" stop-color="#23405f"/>
      <stop offset="100%" stop-color="#4f87b6"/>
    </linearGradient>
  </defs>
  <rect width="900" height="320" rx="16" fill="url(#g2)"/>
  <g fill="#e1f2ff" font-family="Segoe UI, Arial, sans-serif">
    <text x="36" y="62" font-size="34" font-weight="700">Scope 2</text>
    <text x="36" y="100" font-size="20">Purchased electricity and utility-related emissions</text>
  </g>
  <g stroke="#e1f2ff" stroke-width="5" fill="none">
    <path d="M44 246 L160 232 L278 205 L388 184 L522 178 L640 150 L742 138 L854 118"/>
  </g>
  <g fill="#e1f2ff">
    <rect x="130" y="206" width="20" height="28" rx="3"/>
    <rect x="248" y="179" width="20" height="28" rx="3"/>
    <rect x="358" y="158" width="20" height="28" rx="3"/>
    <rect x="492" y="152" width="20" height="28" rx="3"/>
    <rect x="610" y="124" width="20" height="28" rx="3"/>
    <rect x="712" y="112" width="20" height="28" rx="3"/>
    <rect x="824" y="92" width="20" height="28" rx="3"/>
  </g>
</svg>
